<svg height="390" width= "400" xmlns="http://www.w3.org/2000/svg"><circle cx="250.000000" cy="200" r="10" stroke="black" stroke-width="2" fill="white" />
<line x1="200" y1="200" x2="240.000000" y2="200" style="stroke:rgb(0,0,0);stroke-width:2" />
<line x1="260.000000" y1="200" x2="300" y2="200" style="stroke:rgb(0,0,0);stroke-width:2" />
<line x1="242.000000" y1="200" x2="245.000000" y2="200" style="stroke:rgb(0,0,0);stroke-width:1" />
<line x1="255.000000" y1="200" x2="258.000000" y2="200" style="stroke:rgb(0,0,0);stroke-width:1" />
<line x1="256.500000" y1="198.500000" x2="256.500000" y2="201.500000" style="stroke:rgb(0,0,0);stroke-width:1" /><g font-size="10" font-family="sans-serif" fill="black" stroke="none" text-anchor="middle">
<text x="250" y="190">I1</text>
</g><circle id="pointA" cx="200" cy="230" r="1" />
<circle id="pointA" cx="237.500000" cy="230" r="1" />
<line x1="200" y1="230" x2="237.500000" y2="230" style="stroke:rgb(0,0,0);stroke-width:2" />
<circle id="pointA" cx="242.500000" cy="225" r="1" />
<line x1="237.500000" y1="230" x2="242.500000" y2="225" style="stroke:rgb(0,0,0);stroke-width:2" />
<circle id="pointA" cx="247.500000" cy="235" r="1" />
<line x1="242.500000" y1="225" x2="247.500000" y2="235" style="stroke:rgb(0,0,0);stroke-width:2" />
<circle id="pointA" cx="252.500000" cy="225" r="1" />
<line x1="247.500000" y1="235" x2="252.500000" y2="225" style="stroke:rgb(0,0,0);stroke-width:2" />
<circle id="pointA" cx="257.500000" cy="235" r="1" />
<line x1="252.500000" y1="225" x2="257.500000" y2="235" style="stroke:rgb(0,0,0);stroke-width:2" />
<circle id="pointA" cx="262.500000" cy="230" r="1" />
<line x1="257.500000" y1="235" x2="262.500000" y2="230" style="stroke:rgb(0,0,0);stroke-width:2" />
<line x1="262.500000" y1="230" x2="300" y2="230" style="stroke:rgb(0,0,0);stroke-width:2" />
<circle id="pointA" cx="300" cy="230" r= " 1" /><g font-size="10" font-family="sans-serif" fill="black" stroke="none" text-anchor="middle">
<text x="250" y="220">R3</text>
</g><circle id="pointA" cx="200" cy="260" r="1" />
<circle id="pointA" cx="237.500000" cy="260" r="1" />
<line x1="200" y1="260" x2="237.500000" y2="260" style="stroke:rgb(0,0,0);stroke-width:2" />
<circle id="pointA" cx="242.500000" cy="255" r="1" />
<line x1="237.500000" y1="260" x2="242.500000" y2="255" style="stroke:rgb(0,0,0);stroke-width:2" />
<circle id="pointA" cx="247.500000" cy="265" r="1" />
<line x1="242.500000" y1="255" x2="247.500000" y2="265" style="stroke:rgb(0,0,0);stroke-width:2" />
<circle id="pointA" cx="252.500000" cy="255" r="1" />
<line x1="247.500000" y1="265" x2="252.500000" y2="255" style="stroke:rgb(0,0,0);stroke-width:2" />
<circle id="pointA" cx="257.500000" cy="265" r="1" />
<line x1="252.500000" y1="255" x2="257.500000" y2="265" style="stroke:rgb(0,0,0);stroke-width:2" />
<circle id="pointA" cx="262.500000" cy="260" r="1" />
<line x1="257.500000" y1="265" x2="262.500000" y2="260" style="stroke:rgb(0,0,0);stroke-width:2" />
<line x1="262.500000" y1="260" x2="300" y2="260" style="stroke:rgb(0,0,0);stroke-width:2" />
<circle id="pointA" cx="300" cy="260" r= " 1" /><g font-size="10" font-family="sans-serif" fill="black" stroke="none" text-anchor="middle">
<text x="250" y="250">R2</text>
</g><circle cx="225.000000" cy="290" r="10" stroke="black" stroke-width="2" fill="white" />
<line x1="200" y1="290" x2="215.000000" y2="290" style="stroke:rgb(0,0,0);stroke-width:2" />
<line x1="235.000000" y1="290" x2="250" y2="290" style="stroke:rgb(0,0,0);stroke-width:2" />
<path d="M 225.000000 290 q 2.5 -5 5 0" stroke="black" stroke-width="2" fill="none" />
<path d="M 220.000000 290 q 2.5 5 5 0" stroke="black" stroke-width="2" fill="none" /><g font-size="10" font-family="sans-serif" fill="black" stroke="none" text-anchor="middle">
<text x="225" y="280">V1</text>
</g><circle id="pointA" cx="250" cy="290" r="1" />
<circle id="pointA" cx="262.500000" cy="290" r="1" />
<line x1="250" y1="290" x2="262.500000" y2="290" style="stroke:rgb(0,0,0);stroke-width:2" />
<circle id="pointA" cx="267.500000" cy="285" r="1" />
<line x1="262.500000" y1="290" x2="267.500000" y2="285" style="stroke:rgb(0,0,0);stroke-width:2" />
<circle id="pointA" cx="272.500000" cy="295" r="1" />
<line x1="267.500000" y1="285" x2="272.500000" y2="295" style="stroke:rgb(0,0,0);stroke-width:2" />
<circle id="pointA" cx="277.500000" cy="285" r="1" />
<line x1="272.500000" y1="295" x2="277.500000" y2="285" style="stroke:rgb(0,0,0);stroke-width:2" />
<circle id="pointA" cx="282.500000" cy="295" r="1" />
<line x1="277.500000" y1="285" x2="282.500000" y2="295" style="stroke:rgb(0,0,0);stroke-width:2" />
<circle id="pointA" cx="287.500000" cy="290" r="1" />
<line x1="282.500000" y1="295" x2="287.500000" y2="290" style="stroke:rgb(0,0,0);stroke-width:2" />
<line x1="287.500000" y1="290" x2="300" y2="290" style="stroke:rgb(0,0,0);stroke-width:2" />
<circle id="pointA" cx="300" cy="290" r= " 1" /><g font-size="10" font-family="sans-serif" fill="black" stroke="none" text-anchor="middle">
<text x="275" y="280">R1</text>
</g><line x1="200" y1="200" x2="200" y2="290" style="stroke:rgb(0,0,0);stroke-width:2.000000" />
<circle id="pointA" cx="200" cy="200" r="1" />
<circle id="pointA" cx="200" cy="290" r="1" /><g font-size="10" font-family="sans-serif" fill="black" stroke="none" text-anchor="middle">
<text x="200" y="320">NET0</text>
</g><line x1="250" y1="200" x2="250" y2="290" style="stroke:rgb(0,0,0);stroke-width:0.500000" />
<circle id="pointA" cx="250" cy="200" r="1" />
<circle id="pointA" cx="250" cy="290" r="1" /><g font-size="10" font-family="sans-serif" fill="black" stroke="none" text-anchor="middle">
<text x="250" y="320">NET1</text>
</g><line x1="300" y1="200" x2="300" y2="290" style="stroke:rgb(0,0,0);stroke-width:2.000000" />
<circle id="pointA" cx="300" cy="200" r="1" />
<circle id="pointA" cx="300" cy="290" r="1" /><g font-size="10" font-family="sans-serif" fill="black" stroke="none" text-anchor="middle">
<text x="300" y="320">NET2</text>
</g>
</svg>