<svg height="420" width= "450" xmlns="http://www.w3.org/2000/svg"><circle id="pointA" cx="200" cy="200" r="1" />
<circle id="pointA" cx="262.500000" cy="200" r="1" />
<line x1="200" y1="200" x2="262.500000" y2="200" style="stroke:rgb(0,0,0);stroke-width:2" />
<circle id="pointA" cx="267.500000" cy="195" r="1" />
<line x1="262.500000" y1="200" x2="267.500000" y2="195" style="stroke:rgb(0,0,0);stroke-width:2" />
<circle id="pointA" cx="272.500000" cy="205" r="1" />
<line x1="267.500000" y1="195" x2="272.500000" y2="205" style="stroke:rgb(0,0,0);stroke-width:2" />
<circle id="pointA" cx="277.500000" cy="195" r="1" />
<line x1="272.500000" y1="205" x2="277.500000" y2="195" style="stroke:rgb(0,0,0);stroke-width:2" />
<circle id="pointA" cx="282.500000" cy="205" r="1" />
<line x1="277.500000" y1="195" x2="282.500000" y2="205" style="stroke:rgb(0,0,0);stroke-width:2" />
<circle id="pointA" cx="287.500000" cy="200" r="1" />
<line x1="282.500000" y1="205" x2="287.500000" y2="200" style="stroke:rgb(0,0,0);stroke-width:2" />
<line x1="287.500000" y1="200" x2="350" y2="200" style="stroke:rgb(0,0,0);stroke-width:2" />
<circle id="pointA" cx="350" cy="200" r= " 1" /><g font-size="10" font-family="sans-serif" fill="black" stroke="none" text-anchor="middle">
<text x="275" y="190">R3</text>
</g><circle id="pointA" cx="200" cy="230" r="1" />
<circle id="pointA" cx="237.500000" cy="230" r="1" />
<line x1="200" y1="230" x2="237.500000" y2="230" style="stroke:rgb(0,0,0);stroke-width:2" />
<circle id="pointA" cx="242.500000" cy="225" r="1" />
<line x1="237.500000" y1="230" x2="242.500000" y2="225" style="stroke:rgb(0,0,0);stroke-width:2" />
<circle id="pointA" cx="247.500000" cy="235" r="1" />
<line x1="242.500000" y1="225" x2="247.500000" y2="235" style="stroke:rgb(0,0,0);stroke-width:2" />
<circle id="pointA" cx="252.500000" cy="225" r="1" />
<line x1="247.500000" y1="235" x2="252.500000" y2="225" style="stroke:rgb(0,0,0);stroke-width:2" />
<circle id="pointA" cx="257.500000" cy="235" r="1" />
<line x1="252.500000" y1="225" x2="257.500000" y2="235" style="stroke:rgb(0,0,0);stroke-width:2" />
<circle id="pointA" cx="262.500000" cy="230" r="1" />
<line x1="257.500000" y1="235" x2="262.500000" y2="230" style="stroke:rgb(0,0,0);stroke-width:2" />
<line x1="262.500000" y1="230" x2="300" y2="230" style="stroke:rgb(0,0,0);stroke-width:2" />
<circle id="pointA" cx="300" cy="230" r= " 1" /><g font-size="10" font-family="sans-serif" fill="black" stroke="none" text-anchor="middle">
<text x="250" y="220">R2</text>
</g><circle cx="225.000000" cy="260" r="10" stroke="black" stroke-width="2" fill="white" />
<line x1="200" y1="260" x2="215.000000" y2="260" style="stroke:rgb(0,0,0);stroke-width:2" />
<line x1="235.000000" y1="260" x2="250" y2="260" style="stroke:rgb(0,0,0);stroke-width:2" />
<path d="M 225.000000 260 q 2.5 -5 5 0" stroke="black" stroke-width="2" fill="none" />
<path d="M 220.000000 260 q 2.5 5 5 0" stroke="black" stroke-width="2" fill="none" /><g font-size="10" font-family="sans-serif" fill="black" stroke="none" text-anchor="middle">
<text x="225" y="250">V1</text>
</g><circle cx="275.000000" cy="260" r="10" stroke="black" stroke-width="2" fill="white" />
<line x1="250" y1="260" x2="265.000000" y2="260" style="stroke:rgb(0,0,0);stroke-width:2" />
<line x1="285.000000" y1="260" x2="300" y2="260" style="stroke:rgb(0,0,0);stroke-width:2" />
<line x1="267.000000" y1="260" x2="270.000000" y2="260" style="stroke:rgb(0,0,0);stroke-width:1" />
<line x1="280.000000" y1="260" x2="283.000000" y2="260" style="stroke:rgb(0,0,0);stroke-width:1" />
<line x1="281.500000" y1="258.500000" x2="281.500000" y2="261.500000" style="stroke:rgb(0,0,0);stroke-width:1" /><g font-size="10" font-family="sans-serif" fill="black" stroke="none" text-anchor="middle">
<text x="275" y="250">I1</text>
</g><circle id="pointA" cx="250" cy="290" r="1" />
<circle id="pointA" cx="262.500000" cy="290" r="1" />
<line x1="250" y1="290" x2="262.500000" y2="290" style="stroke:rgb(0,0,0);stroke-width:2" />
<circle id="pointA" cx="267.500000" cy="285" r="1" />
<line x1="262.500000" y1="290" x2="267.500000" y2="285" style="stroke:rgb(0,0,0);stroke-width:2" />
<circle id="pointA" cx="272.500000" cy="295" r="1" />
<line x1="267.500000" y1="285" x2="272.500000" y2="295" style="stroke:rgb(0,0,0);stroke-width:2" />
<circle id="pointA" cx="277.500000" cy="285" r="1" />
<line x1="272.500000" y1="295" x2="277.500000" y2="285" style="stroke:rgb(0,0,0);stroke-width:2" />
<circle id="pointA" cx="282.500000" cy="295" r="1" />
<line x1="277.500000" y1="285" x2="282.500000" y2="295" style="stroke:rgb(0,0,0);stroke-width:2" />
<circle id="pointA" cx="287.500000" cy="290" r="1" />
<line x1="282.500000" y1="295" x2="287.500000" y2="290" style="stroke:rgb(0,0,0);stroke-width:2" />
<line x1="287.500000" y1="290" x2="300" y2="290" style="stroke:rgb(0,0,0);stroke-width:2" />
<circle id="pointA" cx="300" cy="290" r= " 1" /><g font-size="10" font-family="sans-serif" fill="black" stroke="none" text-anchor="middle">
<text x="275" y="280">R1</text>
</g><circle cx="325.000000" cy="260" r="10" stroke="black" stroke-width="2" fill="white" />
<line x1="300" y1="260" x2="315.000000" y2="260" style="stroke:rgb(0,0,0);stroke-width:2" />
<line x1="335.000000" y1="260" x2="350" y2="260" style="stroke:rgb(0,0,0);stroke-width:2" />
<path d="M 325.000000 260 q 2.5 -5 5 0" stroke="black" stroke-width="2" fill="none" />
<path d="M 320.000000 260 q 2.5 5 5 0" stroke="black" stroke-width="2" fill="none" /><g font-size="10" font-family="sans-serif" fill="black" stroke="none" text-anchor="middle">
<text x="325" y="250">V2</text>
</g><line x1="200" y1="200" x2="200" y2="290" style="stroke:rgb(0,0,0);stroke-width:2.000000" />
<circle id="pointA" cx="200" cy="200" r="1" />
<circle id="pointA" cx="200" cy="290" r="1" /><g font-size="10" font-family="sans-serif" fill="black" stroke="none" text-anchor="middle">
<text x="200" y="320">NET0</text>
</g><line x1="250" y1="200" x2="250" y2="290" style="stroke:rgb(0,0,0);stroke-width:0.500000" />
<circle id="pointA" cx="250" cy="200" r="1" />
<circle id="pointA" cx="250" cy="290" r="1" /><g font-size="10" font-family="sans-serif" fill="black" stroke="none" text-anchor="middle">
<text x="250" y="320">NET1</text>
</g><line x1="300" y1="200" x2="300" y2="290" style="stroke:rgb(0,0,0);stroke-width:0.500000" />
<circle id="pointA" cx="300" cy="200" r="1" />
<circle id="pointA" cx="300" cy="290" r="1" /><g font-size="10" font-family="sans-serif" fill="black" stroke="none" text-anchor="middle">
<text x="300" y="320">NET2</text>
</g><line x1="350" y1="200" x2="350" y2="290" style="stroke:rgb(0,0,0);stroke-width:2.000000" />
<circle id="pointA" cx="350" cy="200" r="1" />
<circle id="pointA" cx="350" cy="290" r="1" /><g font-size="10" font-family="sans-serif" fill="black" stroke="none" text-anchor="middle">
<text x="350" y="320">NET3</text>
</g>
</svg>