<svg height="330" width= "400" xmlns="http://www.w3.org/2000/svg"><line x1="200" y1="200" x2="240.000000" y2="200" style=" stroke:rgb(0,0,0);stroke-width: 2" />
<circle id="pointA" cx="240.000000" cy="200" r="1" />
<path d="M 240.000000 200  q 2.5 5 5 0 " stroke="black" stroke-width="2" fill="none" />
<circle id="pointA" cx="245.000000" cy="200" r="1" />
<path d="M 245.000000 200  q 2.5 5 5 0 " stroke="black" stroke-width="2" fill="none" />
<circle id="pointA" cx="250.000000" cy="200" r="1" />
<path d="M 250.000000 200  q 2.5 5 5 0 " stroke="black" stroke-width="2" fill="none" />
<circle id="pointA" cx="255.000000" cy="200" r="1" />
<path d="M 255.000000 200  q 2.5 5 5 0 " stroke="black" stroke-width="2" fill="none" />
<circle id="pointA" cx="260.000000" cy="200" r="1" />
<line x1="260.000000" y1="200" x2="300" y2="200" style="stroke:rgb(0,0,0);stroke-width:2" /> <g font-size="10" font-family="sans-serif" fill="black" stroke="none" text-anchor="middle">
<text x="250" y="190">L1</text>
</g><circle cx="225.000000" cy="230" r="10" stroke="black" stroke-width="2" fill="white" />
<line x1="200" y1="230" x2="215.000000" y2="230" style="stroke:rgb(0,0,0);stroke-width:2" />
<line x1="235.000000" y1="230" x2="250" y2="230" style="stroke:rgb(0,0,0);stroke-width:2" />
<line x1="217.000000" y1="230" x2="220.000000" y2="230" style="stroke:rgb(0,0,0);stroke-width:1" />
<line x1="230.000000" y1="230" x2="233.000000" y2="230" style="stroke:rgb(0,0,0);stroke-width:1" />
<line x1="231.500000" y1="228.500000" x2="231.500000" y2="231.500000" style="stroke:rgb(0,0,0);stroke-width:1" /><g font-size="10" font-family="sans-serif" fill="black" stroke="none" text-anchor="middle">
<text x="225" y="220">I1</text>
</g><circle id="pointA" cx="250" cy="230" r="1" />
<circle id="pointA" cx="262.500000" cy="230" r="1" />
<line x1="250" y1="230" x2="262.500000" y2="230" style="stroke:rgb(0,0,0);stroke-width:2" />
<circle id="pointA" cx="267.500000" cy="225" r="1" />
<line x1="262.500000" y1="230" x2="267.500000" y2="225" style="stroke:rgb(0,0,0);stroke-width:2" />
<circle id="pointA" cx="272.500000" cy="235" r="1" />
<line x1="267.500000" y1="225" x2="272.500000" y2="235" style="stroke:rgb(0,0,0);stroke-width:2" />
<circle id="pointA" cx="277.500000" cy="225" r="1" />
<line x1="272.500000" y1="235" x2="277.500000" y2="225" style="stroke:rgb(0,0,0);stroke-width:2" />
<circle id="pointA" cx="282.500000" cy="235" r="1" />
<line x1="277.500000" y1="225" x2="282.500000" y2="235" style="stroke:rgb(0,0,0);stroke-width:2" />
<circle id="pointA" cx="287.500000" cy="230" r="1" />
<line x1="282.500000" y1="235" x2="287.500000" y2="230" style="stroke:rgb(0,0,0);stroke-width:2" />
<line x1="287.500000" y1="230" x2="300" y2="230" style="stroke:rgb(0,0,0);stroke-width:2" />
<circle id="pointA" cx="300" cy="230" r= " 1" /><g font-size="10" font-family="sans-serif" fill="black" stroke="none" text-anchor="middle">
<text x="275" y="220">R1</text>
</g><line x1="200" y1="200" x2="200" y2="230" style="stroke:rgb(0,0,0);stroke-width:2.000000" />
<circle id="pointA" cx="200" cy="200" r="1" />
<circle id="pointA" cx="200" cy="230" r="1" /><g font-size="10" font-family="sans-serif" fill="black" stroke="none" text-anchor="middle">
<text x="200" y="260">NET0</text>
</g><line x1="250" y1="200" x2="250" y2="230" style="stroke:rgb(0,0,0);stroke-width:0.500000" />
<circle id="pointA" cx="250" cy="200" r="1" />
<circle id="pointA" cx="250" cy="230" r="1" /><g font-size="10" font-family="sans-serif" fill="black" stroke="none" text-anchor="middle">
<text x="250" y="260">NET1</text>
</g><line x1="300" y1="200" x2="300" y2="230" style="stroke:rgb(0,0,0);stroke-width:2.000000" />
<circle id="pointA" cx="300" cy="200" r="1" />
<circle id="pointA" cx="300" cy="230" r="1" /><g font-size="10" font-family="sans-serif" fill="black" stroke="none" text-anchor="middle">
<text x="300" y="260">NET2</text>
</g>
</svg>