<svg height="420" width= "450" xmlns="http://www.w3.org/2000/svg"><circle cx="275.000000" cy="200" r="10" stroke="black" stroke-width="2" fill="white" />
<line x1="200" y1="200" x2="265.000000" y2="200" style="stroke:rgb(0,0,0);stroke-width:2" />
<line x1="285.000000" y1="200" x2="350" y2="200" style="stroke:rgb(0,0,0);stroke-width:2" />
<path d="M 275.000000 200 q 2.5 -5 5 0" stroke="black" stroke-width="2" fill="none" />
<path d="M 270.000000 200 q 2.5 5 5 0" stroke="black" stroke-width="2" fill="none" /><g font-size="10" font-family="sans-serif" fill="black" stroke="none" text-anchor="middle">
<text x="275" y="190">V1</text>
</g><line x1="200" y1="230" x2="215.000000" y2="230" style=" stroke:rgb(0,0,0);stroke-width: 2" />
<circle id="pointA" cx="215.000000" cy="230" r="1" />
<path d="M 215.000000 230  q 2.5 5 5 0 " stroke="black" stroke-width="2" fill="none" />
<circle id="pointA" cx="220.000000" cy="230" r="1" />
<path d="M 220.000000 230  q 2.5 5 5 0 " stroke="black" stroke-width="2" fill="none" />
<circle id="pointA" cx="225.000000" cy="230" r="1" />
<path d="M 225.000000 230  q 2.5 5 5 0 " stroke="black" stroke-width="2" fill="none" />
<circle id="pointA" cx="230.000000" cy="230" r="1" />
<path d="M 230.000000 230  q 2.5 5 5 0 " stroke="black" stroke-width="2" fill="none" />
<circle id="pointA" cx="235.000000" cy="230" r="1" />
<line x1="235.000000" y1="230" x2="250" y2="230" style="stroke:rgb(0,0,0);stroke-width:2" /> <g font-size="10" font-family="sans-serif" fill="black" stroke="none" text-anchor="middle">
<text x="225" y="220">L1</text>
</g><line x1="200" y1="260" x2="223.000000" y2="260" style="stroke:rgb(0,0,0);stroke-width:2" />
<line x1="223.000000" y1="256" x2="223.000000" y2="264" style="stroke:rgb(0,0,0);stroke-width:2" />
<line x1="227.000000" y1="256" x2="227.000000" y2="264" style="stroke:rgb(0,0,0);stroke-width:2" />
<line x1="227.000000" y1="260" x2="250" y2="260" style="stroke:rgb(0,0,0);stroke-width:2" />
<circle id="pointA" cx="200" cy="260" r="1" />
<circle id="pointA" cx="250" cy="260" r="1" /><g font-size="10" font-family="sans-serif" fill="black" stroke="none" text-anchor="middle">
<text x="225" y="250">C1</text>
</g><circle id="pointA" cx="200" cy="290" r="1" />
<circle id="pointA" cx="212.500000" cy="290" r="1" />
<line x1="200" y1="290" x2="212.500000" y2="290" style="stroke:rgb(0,0,0);stroke-width:2" />
<circle id="pointA" cx="217.500000" cy="285" r="1" />
<line x1="212.500000" y1="290" x2="217.500000" y2="285" style="stroke:rgb(0,0,0);stroke-width:2" />
<circle id="pointA" cx="222.500000" cy="295" r="1" />
<line x1="217.500000" y1="285" x2="222.500000" y2="295" style="stroke:rgb(0,0,0);stroke-width:2" />
<circle id="pointA" cx="227.500000" cy="285" r="1" />
<line x1="222.500000" y1="295" x2="227.500000" y2="285" style="stroke:rgb(0,0,0);stroke-width:2" />
<circle id="pointA" cx="232.500000" cy="295" r="1" />
<line x1="227.500000" y1="285" x2="232.500000" y2="295" style="stroke:rgb(0,0,0);stroke-width:2" />
<circle id="pointA" cx="237.500000" cy="290" r="1" />
<line x1="232.500000" y1="295" x2="237.500000" y2="290" style="stroke:rgb(0,0,0);stroke-width:2" />
<line x1="237.500000" y1="290" x2="250" y2="290" style="stroke:rgb(0,0,0);stroke-width:2" />
<circle id="pointA" cx="250" cy="290" r= " 1" /><g font-size="10" font-family="sans-serif" fill="black" stroke="none" text-anchor="middle">
<text x="225" y="280">R1</text>
</g><line x1="250" y1="230" x2="273.000000" y2="230" style="stroke:rgb(0,0,0);stroke-width:2" />
<line x1="273.000000" y1="226" x2="273.000000" y2="234" style="stroke:rgb(0,0,0);stroke-width:2" />
<line x1="277.000000" y1="226" x2="277.000000" y2="234" style="stroke:rgb(0,0,0);stroke-width:2" />
<line x1="277.000000" y1="230" x2="300" y2="230" style="stroke:rgb(0,0,0);stroke-width:2" />
<circle id="pointA" cx="250" cy="230" r="1" />
<circle id="pointA" cx="300" cy="230" r="1" /><g font-size="10" font-family="sans-serif" fill="black" stroke="none" text-anchor="middle">
<text x="275" y="220">C2</text>
</g><circle id="pointA" cx="300" cy="230" r="1" />
<circle id="pointA" cx="312.500000" cy="230" r="1" />
<line x1="300" y1="230" x2="312.500000" y2="230" style="stroke:rgb(0,0,0);stroke-width:2" />
<circle id="pointA" cx="317.500000" cy="225" r="1" />
<line x1="312.500000" y1="230" x2="317.500000" y2="225" style="stroke:rgb(0,0,0);stroke-width:2" />
<circle id="pointA" cx="322.500000" cy="235" r="1" />
<line x1="317.500000" y1="225" x2="322.500000" y2="235" style="stroke:rgb(0,0,0);stroke-width:2" />
<circle id="pointA" cx="327.500000" cy="225" r="1" />
<line x1="322.500000" y1="235" x2="327.500000" y2="225" style="stroke:rgb(0,0,0);stroke-width:2" />
<circle id="pointA" cx="332.500000" cy="235" r="1" />
<line x1="327.500000" y1="225" x2="332.500000" y2="235" style="stroke:rgb(0,0,0);stroke-width:2" />
<circle id="pointA" cx="337.500000" cy="230" r="1" />
<line x1="332.500000" y1="235" x2="337.500000" y2="230" style="stroke:rgb(0,0,0);stroke-width:2" />
<line x1="337.500000" y1="230" x2="350" y2="230" style="stroke:rgb(0,0,0);stroke-width:2" />
<circle id="pointA" cx="350" cy="230" r= " 1" /><g font-size="10" font-family="sans-serif" fill="black" stroke="none" text-anchor="middle">
<text x="325" y="220">R2</text>
</g><line x1="200" y1="200" x2="200" y2="290" style="stroke:rgb(0,0,0);stroke-width:2.000000" />
<circle id="pointA" cx="200" cy="200" r="1" />
<circle id="pointA" cx="200" cy="290" r="1" /><g font-size="10" font-family="sans-serif" fill="black" stroke="none" text-anchor="middle">
<text x="200" y="320">NET0</text>
</g><line x1="250" y1="200" x2="250" y2="290" style="stroke:rgb(0,0,0);stroke-width:0.500000" />
<circle id="pointA" cx="250" cy="200" r="1" />
<circle id="pointA" cx="250" cy="290" r="1" /><g font-size="10" font-family="sans-serif" fill="black" stroke="none" text-anchor="middle">
<text x="250" y="320">NET1</text>
</g><line x1="300" y1="200" x2="300" y2="290" style="stroke:rgb(0,0,0);stroke-width:0.500000" />
<circle id="pointA" cx="300" cy="200" r="1" />
<circle id="pointA" cx="300" cy="290" r="1" /><g font-size="10" font-family="sans-serif" fill="black" stroke="none" text-anchor="middle">
<text x="300" y="320">NET2</text>
</g><line x1="350" y1="200" x2="350" y2="290" style="stroke:rgb(0,0,0);stroke-width:2.000000" />
<circle id="pointA" cx="350" cy="200" r="1" />
<circle id="pointA" cx="350" cy="290" r="1" /><g font-size="10" font-family="sans-serif" fill="black" stroke="none" text-anchor="middle">
<text x="350" y="320">NET3</text>
</g>
</svg>