<svg height="720" width= "500" xmlns="http://www.w3.org/2000/svg"><circle cx="300.000000" cy="200" r="10" stroke="black" stroke-width="2" fill="white" />
<line x1="200" y1="200" x2="290.000000" y2="200" style="stroke:rgb(0,0,0);stroke-width:2" />
<line x1="310.000000" y1="200" x2="400" y2="200" style="stroke:rgb(0,0,0);stroke-width:2" />
<line x1="292.000000" y1="200" x2="295.000000" y2="200" style="stroke:rgb(0,0,0);stroke-width:1" />
<line x1="305.000000" y1="200" x2="308.000000" y2="200" style="stroke:rgb(0,0,0);stroke-width:1" />
<line x1="306.500000" y1="198.500000" x2="306.500000" y2="201.500000" style="stroke:rgb(0,0,0);stroke-width:1" /><g font-size="10" font-family="sans-serif" fill="black" stroke="none" text-anchor="middle">
<text x="300" y="190">I1</text>
</g><circle id="pointA" cx="200" cy="230" r="1" />
<circle id="pointA" cx="262.500000" cy="230" r="1" />
<line x1="200" y1="230" x2="262.500000" y2="230" style="stroke:rgb(0,0,0);stroke-width:2" />
<circle id="pointA" cx="267.500000" cy="225" r="1" />
<line x1="262.500000" y1="230" x2="267.500000" y2="225" style="stroke:rgb(0,0,0);stroke-width:2" />
<circle id="pointA" cx="272.500000" cy="235" r="1" />
<line x1="267.500000" y1="225" x2="272.500000" y2="235" style="stroke:rgb(0,0,0);stroke-width:2" />
<circle id="pointA" cx="277.500000" cy="225" r="1" />
<line x1="272.500000" y1="235" x2="277.500000" y2="225" style="stroke:rgb(0,0,0);stroke-width:2" />
<circle id="pointA" cx="282.500000" cy="235" r="1" />
<line x1="277.500000" y1="225" x2="282.500000" y2="235" style="stroke:rgb(0,0,0);stroke-width:2" />
<circle id="pointA" cx="287.500000" cy="230" r="1" />
<line x1="282.500000" y1="235" x2="287.500000" y2="230" style="stroke:rgb(0,0,0);stroke-width:2" />
<line x1="287.500000" y1="230" x2="350" y2="230" style="stroke:rgb(0,0,0);stroke-width:2" />
<circle id="pointA" cx="350" cy="230" r= " 1" /><g font-size="10" font-family="sans-serif" fill="black" stroke="none" text-anchor="middle">
<text x="275" y="220">R5</text>
</g><circle id="pointA" cx="200" cy="260" r="1" />
<circle id="pointA" cx="237.500000" cy="260" r="1" />
<line x1="200" y1="260" x2="237.500000" y2="260" style="stroke:rgb(0,0,0);stroke-width:2" />
<circle id="pointA" cx="242.500000" cy="255" r="1" />
<line x1="237.500000" y1="260" x2="242.500000" y2="255" style="stroke:rgb(0,0,0);stroke-width:2" />
<circle id="pointA" cx="247.500000" cy="265" r="1" />
<line x1="242.500000" y1="255" x2="247.500000" y2="265" style="stroke:rgb(0,0,0);stroke-width:2" />
<circle id="pointA" cx="252.500000" cy="255" r="1" />
<line x1="247.500000" y1="265" x2="252.500000" y2="255" style="stroke:rgb(0,0,0);stroke-width:2" />
<circle id="pointA" cx="257.500000" cy="265" r="1" />
<line x1="252.500000" y1="255" x2="257.500000" y2="265" style="stroke:rgb(0,0,0);stroke-width:2" />
<circle id="pointA" cx="262.500000" cy="260" r="1" />
<line x1="257.500000" y1="265" x2="262.500000" y2="260" style="stroke:rgb(0,0,0);stroke-width:2" />
<line x1="262.500000" y1="260" x2="300" y2="260" style="stroke:rgb(0,0,0);stroke-width:2" />
<circle id="pointA" cx="300" cy="260" r= " 1" /><g font-size="10" font-family="sans-serif" fill="black" stroke="none" text-anchor="middle">
<text x="250" y="250">R4</text>
</g><circle id="pointA" cx="200" cy="290" r="1" />
<circle id="pointA" cx="237.500000" cy="290" r="1" />
<line x1="200" y1="290" x2="237.500000" y2="290" style="stroke:rgb(0,0,0);stroke-width:2" />
<circle id="pointA" cx="242.500000" cy="285" r="1" />
<line x1="237.500000" y1="290" x2="242.500000" y2="285" style="stroke:rgb(0,0,0);stroke-width:2" />
<circle id="pointA" cx="247.500000" cy="295" r="1" />
<line x1="242.500000" y1="285" x2="247.500000" y2="295" style="stroke:rgb(0,0,0);stroke-width:2" />
<circle id="pointA" cx="252.500000" cy="285" r="1" />
<line x1="247.500000" y1="295" x2="252.500000" y2="285" style="stroke:rgb(0,0,0);stroke-width:2" />
<circle id="pointA" cx="257.500000" cy="295" r="1" />
<line x1="252.500000" y1="285" x2="257.500000" y2="295" style="stroke:rgb(0,0,0);stroke-width:2" />
<circle id="pointA" cx="262.500000" cy="290" r="1" />
<line x1="257.500000" y1="295" x2="262.500000" y2="290" style="stroke:rgb(0,0,0);stroke-width:2" />
<line x1="262.500000" y1="290" x2="300" y2="290" style="stroke:rgb(0,0,0);stroke-width:2" />
<circle id="pointA" cx="300" cy="290" r= " 1" /><g font-size="10" font-family="sans-serif" fill="black" stroke="none" text-anchor="middle">
<text x="250" y="280">R4</text>
</g><circle id="pointA" cx="200" cy="320" r="1" />
<circle id="pointA" cx="237.500000" cy="320" r="1" />
<line x1="200" y1="320" x2="237.500000" y2="320" style="stroke:rgb(0,0,0);stroke-width:2" />
<circle id="pointA" cx="242.500000" cy="315" r="1" />
<line x1="237.500000" y1="320" x2="242.500000" y2="315" style="stroke:rgb(0,0,0);stroke-width:2" />
<circle id="pointA" cx="247.500000" cy="325" r="1" />
<line x1="242.500000" y1="315" x2="247.500000" y2="325" style="stroke:rgb(0,0,0);stroke-width:2" />
<circle id="pointA" cx="252.500000" cy="315" r="1" />
<line x1="247.500000" y1="325" x2="252.500000" y2="315" style="stroke:rgb(0,0,0);stroke-width:2" />
<circle id="pointA" cx="257.500000" cy="325" r="1" />
<line x1="252.500000" y1="315" x2="257.500000" y2="325" style="stroke:rgb(0,0,0);stroke-width:2" />
<circle id="pointA" cx="262.500000" cy="320" r="1" />
<line x1="257.500000" y1="325" x2="262.500000" y2="320" style="stroke:rgb(0,0,0);stroke-width:2" />
<line x1="262.500000" y1="320" x2="300" y2="320" style="stroke:rgb(0,0,0);stroke-width:2" />
<circle id="pointA" cx="300" cy="320" r= " 1" /><g font-size="10" font-family="sans-serif" fill="black" stroke="none" text-anchor="middle">
<text x="250" y="310">R4</text>
</g><circle id="pointA" cx="200" cy="350" r="1" />
<circle id="pointA" cx="237.500000" cy="350" r="1" />
<line x1="200" y1="350" x2="237.500000" y2="350" style="stroke:rgb(0,0,0);stroke-width:2" />
<circle id="pointA" cx="242.500000" cy="345" r="1" />
<line x1="237.500000" y1="350" x2="242.500000" y2="345" style="stroke:rgb(0,0,0);stroke-width:2" />
<circle id="pointA" cx="247.500000" cy="355" r="1" />
<line x1="242.500000" y1="345" x2="247.500000" y2="355" style="stroke:rgb(0,0,0);stroke-width:2" />
<circle id="pointA" cx="252.500000" cy="345" r="1" />
<line x1="247.500000" y1="355" x2="252.500000" y2="345" style="stroke:rgb(0,0,0);stroke-width:2" />
<circle id="pointA" cx="257.500000" cy="355" r="1" />
<line x1="252.500000" y1="345" x2="257.500000" y2="355" style="stroke:rgb(0,0,0);stroke-width:2" />
<circle id="pointA" cx="262.500000" cy="350" r="1" />
<line x1="257.500000" y1="355" x2="262.500000" y2="350" style="stroke:rgb(0,0,0);stroke-width:2" />
<line x1="262.500000" y1="350" x2="300" y2="350" style="stroke:rgb(0,0,0);stroke-width:2" />
<circle id="pointA" cx="300" cy="350" r= " 1" /><g font-size="10" font-family="sans-serif" fill="black" stroke="none" text-anchor="middle">
<text x="250" y="340">R4</text>
</g><circle id="pointA" cx="300" cy="260" r="1" />
<circle id="pointA" cx="337.500000" cy="260" r="1" />
<line x1="300" y1="260" x2="337.500000" y2="260" style="stroke:rgb(0,0,0);stroke-width:2" />
<circle id="pointA" cx="342.500000" cy="255" r="1" />
<line x1="337.500000" y1="260" x2="342.500000" y2="255" style="stroke:rgb(0,0,0);stroke-width:2" />
<circle id="pointA" cx="347.500000" cy="265" r="1" />
<line x1="342.500000" y1="255" x2="347.500000" y2="265" style="stroke:rgb(0,0,0);stroke-width:2" />
<circle id="pointA" cx="352.500000" cy="255" r="1" />
<line x1="347.500000" y1="265" x2="352.500000" y2="255" style="stroke:rgb(0,0,0);stroke-width:2" />
<circle id="pointA" cx="357.500000" cy="265" r="1" />
<line x1="352.500000" y1="255" x2="357.500000" y2="265" style="stroke:rgb(0,0,0);stroke-width:2" />
<circle id="pointA" cx="362.500000" cy="260" r="1" />
<line x1="357.500000" y1="265" x2="362.500000" y2="260" style="stroke:rgb(0,0,0);stroke-width:2" />
<line x1="362.500000" y1="260" x2="400" y2="260" style="stroke:rgb(0,0,0);stroke-width:2" />
<circle id="pointA" cx="400" cy="260" r= " 1" /><g font-size="10" font-family="sans-serif" fill="black" stroke="none" text-anchor="middle">
<text x="350" y="250">R6</text>
</g><circle id="pointA" cx="250" cy="380" r="1" />
<circle id="pointA" cx="287.500000" cy="380" r="1" />
<line x1="250" y1="380" x2="287.500000" y2="380" style="stroke:rgb(0,0,0);stroke-width:2" />
<circle id="pointA" cx="292.500000" cy="375" r="1" />
<line x1="287.500000" y1="380" x2="292.500000" y2="375" style="stroke:rgb(0,0,0);stroke-width:2" />
<circle id="pointA" cx="297.500000" cy="385" r="1" />
<line x1="292.500000" y1="375" x2="297.500000" y2="385" style="stroke:rgb(0,0,0);stroke-width:2" />
<circle id="pointA" cx="302.500000" cy="375" r="1" />
<line x1="297.500000" y1="385" x2="302.500000" y2="375" style="stroke:rgb(0,0,0);stroke-width:2" />
<circle id="pointA" cx="307.500000" cy="385" r="1" />
<line x1="302.500000" y1="375" x2="307.500000" y2="385" style="stroke:rgb(0,0,0);stroke-width:2" />
<circle id="pointA" cx="312.500000" cy="380" r="1" />
<line x1="307.500000" y1="385" x2="312.500000" y2="380" style="stroke:rgb(0,0,0);stroke-width:2" />
<line x1="312.500000" y1="380" x2="350" y2="380" style="stroke:rgb(0,0,0);stroke-width:2" />
<circle id="pointA" cx="350" cy="380" r= " 1" /><g font-size="10" font-family="sans-serif" fill="black" stroke="none" text-anchor="middle">
<text x="300" y="370">R4</text>
</g><circle id="pointA" cx="250" cy="410" r="1" />
<circle id="pointA" cx="287.500000" cy="410" r="1" />
<line x1="250" y1="410" x2="287.500000" y2="410" style="stroke:rgb(0,0,0);stroke-width:2" />
<circle id="pointA" cx="292.500000" cy="405" r="1" />
<line x1="287.500000" y1="410" x2="292.500000" y2="405" style="stroke:rgb(0,0,0);stroke-width:2" />
<circle id="pointA" cx="297.500000" cy="415" r="1" />
<line x1="292.500000" y1="405" x2="297.500000" y2="415" style="stroke:rgb(0,0,0);stroke-width:2" />
<circle id="pointA" cx="302.500000" cy="405" r="1" />
<line x1="297.500000" y1="415" x2="302.500000" y2="405" style="stroke:rgb(0,0,0);stroke-width:2" />
<circle id="pointA" cx="307.500000" cy="415" r="1" />
<line x1="302.500000" y1="405" x2="307.500000" y2="415" style="stroke:rgb(0,0,0);stroke-width:2" />
<circle id="pointA" cx="312.500000" cy="410" r="1" />
<line x1="307.500000" y1="415" x2="312.500000" y2="410" style="stroke:rgb(0,0,0);stroke-width:2" />
<line x1="312.500000" y1="410" x2="350" y2="410" style="stroke:rgb(0,0,0);stroke-width:2" />
<circle id="pointA" cx="350" cy="410" r= " 1" /><g font-size="10" font-family="sans-serif" fill="black" stroke="none" text-anchor="middle">
<text x="300" y="400">R4</text>
</g><circle cx="225.000000" cy="440" r="10" stroke="black" stroke-width="2" fill="white" />
<line x1="200" y1="440" x2="215.000000" y2="440" style="stroke:rgb(0,0,0);stroke-width:2" />
<line x1="235.000000" y1="440" x2="250" y2="440" style="stroke:rgb(0,0,0);stroke-width:2" />
<path d="M 225.000000 440 q 2.5 -5 5 0" stroke="black" stroke-width="2" fill="none" />
<path d="M 220.000000 440 q 2.5 5 5 0" stroke="black" stroke-width="2" fill="none" /><g font-size="10" font-family="sans-serif" fill="black" stroke="none" text-anchor="middle">
<text x="225" y="430">V1</text>
</g><circle id="pointA" cx="250" cy="440" r="1" />
<circle id="pointA" cx="262.500000" cy="440" r="1" />
<line x1="250" y1="440" x2="262.500000" y2="440" style="stroke:rgb(0,0,0);stroke-width:2" />
<circle id="pointA" cx="267.500000" cy="435" r="1" />
<line x1="262.500000" y1="440" x2="267.500000" y2="435" style="stroke:rgb(0,0,0);stroke-width:2" />
<circle id="pointA" cx="272.500000" cy="445" r="1" />
<line x1="267.500000" y1="435" x2="272.500000" y2="445" style="stroke:rgb(0,0,0);stroke-width:2" />
<circle id="pointA" cx="277.500000" cy="435" r="1" />
<line x1="272.500000" y1="445" x2="277.500000" y2="435" style="stroke:rgb(0,0,0);stroke-width:2" />
<circle id="pointA" cx="282.500000" cy="445" r="1" />
<line x1="277.500000" y1="435" x2="282.500000" y2="445" style="stroke:rgb(0,0,0);stroke-width:2" />
<circle id="pointA" cx="287.500000" cy="440" r="1" />
<line x1="282.500000" y1="445" x2="287.500000" y2="440" style="stroke:rgb(0,0,0);stroke-width:2" />
<line x1="287.500000" y1="440" x2="300" y2="440" style="stroke:rgb(0,0,0);stroke-width:2" />
<circle id="pointA" cx="300" cy="440" r= " 1" /><g font-size="10" font-family="sans-serif" fill="black" stroke="none" text-anchor="middle">
<text x="275" y="430">R1</text>
</g><circle id="pointA" cx="300" cy="440" r="1" />
<circle id="pointA" cx="312.500000" cy="440" r="1" />
<line x1="300" y1="440" x2="312.500000" y2="440" style="stroke:rgb(0,0,0);stroke-width:2" />
<circle id="pointA" cx="317.500000" cy="435" r="1" />
<line x1="312.500000" y1="440" x2="317.500000" y2="435" style="stroke:rgb(0,0,0);stroke-width:2" />
<circle id="pointA" cx="322.500000" cy="445" r="1" />
<line x1="317.500000" y1="435" x2="322.500000" y2="445" style="stroke:rgb(0,0,0);stroke-width:2" />
<circle id="pointA" cx="327.500000" cy="435" r="1" />
<line x1="322.500000" y1="445" x2="327.500000" y2="435" style="stroke:rgb(0,0,0);stroke-width:2" />
<circle id="pointA" cx="332.500000" cy="445" r="1" />
<line x1="327.500000" y1="435" x2="332.500000" y2="445" style="stroke:rgb(0,0,0);stroke-width:2" />
<circle id="pointA" cx="337.500000" cy="440" r="1" />
<line x1="332.500000" y1="445" x2="337.500000" y2="440" style="stroke:rgb(0,0,0);stroke-width:2" />
<line x1="337.500000" y1="440" x2="350" y2="440" style="stroke:rgb(0,0,0);stroke-width:2" />
<circle id="pointA" cx="350" cy="440" r= " 1" /><g font-size="10" font-family="sans-serif" fill="black" stroke="none" text-anchor="middle">
<text x="325" y="430">R2</text>
</g><circle id="pointA" cx="350" cy="440" r="1" />
<circle id="pointA" cx="362.500000" cy="440" r="1" />
<line x1="350" y1="440" x2="362.500000" y2="440" style="stroke:rgb(0,0,0);stroke-width:2" />
<circle id="pointA" cx="367.500000" cy="435" r="1" />
<line x1="362.500000" y1="440" x2="367.500000" y2="435" style="stroke:rgb(0,0,0);stroke-width:2" />
<circle id="pointA" cx="372.500000" cy="445" r="1" />
<line x1="367.500000" y1="435" x2="372.500000" y2="445" style="stroke:rgb(0,0,0);stroke-width:2" />
<circle id="pointA" cx="377.500000" cy="435" r="1" />
<line x1="372.500000" y1="445" x2="377.500000" y2="435" style="stroke:rgb(0,0,0);stroke-width:2" />
<circle id="pointA" cx="382.500000" cy="445" r="1" />
<line x1="377.500000" y1="435" x2="382.500000" y2="445" style="stroke:rgb(0,0,0);stroke-width:2" />
<circle id="pointA" cx="387.500000" cy="440" r="1" />
<line x1="382.500000" y1="445" x2="387.500000" y2="440" style="stroke:rgb(0,0,0);stroke-width:2" />
<line x1="387.500000" y1="440" x2="400" y2="440" style="stroke:rgb(0,0,0);stroke-width:2" />
<circle id="pointA" cx="400" cy="440" r= " 1" /><g font-size="10" font-family="sans-serif" fill="black" stroke="none" text-anchor="middle">
<text x="375" y="430">R3</text>
</g><circle id="pointA" cx="350" cy="470" r="1" />
<circle id="pointA" cx="362.500000" cy="470" r="1" />
<line x1="350" y1="470" x2="362.500000" y2="470" style="stroke:rgb(0,0,0);stroke-width:2" />
<circle id="pointA" cx="367.500000" cy="465" r="1" />
<line x1="362.500000" y1="470" x2="367.500000" y2="465" style="stroke:rgb(0,0,0);stroke-width:2" />
<circle id="pointA" cx="372.500000" cy="475" r="1" />
<line x1="367.500000" y1="465" x2="372.500000" y2="475" style="stroke:rgb(0,0,0);stroke-width:2" />
<circle id="pointA" cx="377.500000" cy="465" r="1" />
<line x1="372.500000" y1="475" x2="377.500000" y2="465" style="stroke:rgb(0,0,0);stroke-width:2" />
<circle id="pointA" cx="382.500000" cy="475" r="1" />
<line x1="377.500000" y1="465" x2="382.500000" y2="475" style="stroke:rgb(0,0,0);stroke-width:2" />
<circle id="pointA" cx="387.500000" cy="470" r="1" />
<line x1="382.500000" y1="475" x2="387.500000" y2="470" style="stroke:rgb(0,0,0);stroke-width:2" />
<line x1="387.500000" y1="470" x2="400" y2="470" style="stroke:rgb(0,0,0);stroke-width:2" />
<circle id="pointA" cx="400" cy="470" r= " 1" /><g font-size="10" font-family="sans-serif" fill="black" stroke="none" text-anchor="middle">
<text x="375" y="460">R3</text>
</g><circle id="pointA" cx="350" cy="500" r="1" />
<circle id="pointA" cx="362.500000" cy="500" r="1" />
<line x1="350" y1="500" x2="362.500000" y2="500" style="stroke:rgb(0,0,0);stroke-width:2" />
<circle id="pointA" cx="367.500000" cy="495" r="1" />
<line x1="362.500000" y1="500" x2="367.500000" y2="495" style="stroke:rgb(0,0,0);stroke-width:2" />
<circle id="pointA" cx="372.500000" cy="505" r="1" />
<line x1="367.500000" y1="495" x2="372.500000" y2="505" style="stroke:rgb(0,0,0);stroke-width:2" />
<circle id="pointA" cx="377.500000" cy="495" r="1" />
<line x1="372.500000" y1="505" x2="377.500000" y2="495" style="stroke:rgb(0,0,0);stroke-width:2" />
<circle id="pointA" cx="382.500000" cy="505" r="1" />
<line x1="377.500000" y1="495" x2="382.500000" y2="505" style="stroke:rgb(0,0,0);stroke-width:2" />
<circle id="pointA" cx="387.500000" cy="500" r="1" />
<line x1="382.500000" y1="505" x2="387.500000" y2="500" style="stroke:rgb(0,0,0);stroke-width:2" />
<line x1="387.500000" y1="500" x2="400" y2="500" style="stroke:rgb(0,0,0);stroke-width:2" />
<circle id="pointA" cx="400" cy="500" r= " 1" /><g font-size="10" font-family="sans-serif" fill="black" stroke="none" text-anchor="middle">
<text x="375" y="490">R3</text>
</g><circle id="pointA" cx="350" cy="530" r="1" />
<circle id="pointA" cx="362.500000" cy="530" r="1" />
<line x1="350" y1="530" x2="362.500000" y2="530" style="stroke:rgb(0,0,0);stroke-width:2" />
<circle id="pointA" cx="367.500000" cy="525" r="1" />
<line x1="362.500000" y1="530" x2="367.500000" y2="525" style="stroke:rgb(0,0,0);stroke-width:2" />
<circle id="pointA" cx="372.500000" cy="535" r="1" />
<line x1="367.500000" y1="525" x2="372.500000" y2="535" style="stroke:rgb(0,0,0);stroke-width:2" />
<circle id="pointA" cx="377.500000" cy="525" r="1" />
<line x1="372.500000" y1="535" x2="377.500000" y2="525" style="stroke:rgb(0,0,0);stroke-width:2" />
<circle id="pointA" cx="382.500000" cy="535" r="1" />
<line x1="377.500000" y1="525" x2="382.500000" y2="535" style="stroke:rgb(0,0,0);stroke-width:2" />
<circle id="pointA" cx="387.500000" cy="530" r="1" />
<line x1="382.500000" y1="535" x2="387.500000" y2="530" style="stroke:rgb(0,0,0);stroke-width:2" />
<line x1="387.500000" y1="530" x2="400" y2="530" style="stroke:rgb(0,0,0);stroke-width:2" />
<circle id="pointA" cx="400" cy="530" r= " 1" /><g font-size="10" font-family="sans-serif" fill="black" stroke="none" text-anchor="middle">
<text x="375" y="520">R3</text>
</g><line x1="200" y1="200" x2="200" y2="530" style="stroke:rgb(0,0,0);stroke-width:2.000000" />
<circle id="pointA" cx="200" cy="200" r="1" />
<circle id="pointA" cx="200" cy="530" r="1" /><g font-size="10" font-family="sans-serif" fill="black" stroke="none" text-anchor="middle">
<text x="200" y="560">NET0</text>
</g><line x1="250" y1="200" x2="250" y2="530" style="stroke:rgb(0,0,0);stroke-width:0.500000" />
<circle id="pointA" cx="250" cy="200" r="1" />
<circle id="pointA" cx="250" cy="530" r="1" /><g font-size="10" font-family="sans-serif" fill="black" stroke="none" text-anchor="middle">
<text x="250" y="560">NET1</text>
</g><line x1="300" y1="200" x2="300" y2="530" style="stroke:rgb(0,0,0);stroke-width:0.500000" />
<circle id="pointA" cx="300" cy="200" r="1" />
<circle id="pointA" cx="300" cy="530" r="1" /><g font-size="10" font-family="sans-serif" fill="black" stroke="none" text-anchor="middle">
<text x="300" y="560">NET2</text>
</g><line x1="350" y1="200" x2="350" y2="530" style="stroke:rgb(0,0,0);stroke-width:0.500000" />
<circle id="pointA" cx="350" cy="200" r="1" />
<circle id="pointA" cx="350" cy="530" r="1" /><g font-size="10" font-family="sans-serif" fill="black" stroke="none" text-anchor="middle">
<text x="350" y="560">NET3</text>
</g><line x1="400" y1="200" x2="400" y2="530" style="stroke:rgb(0,0,0);stroke-width:2.000000" />
<circle id="pointA" cx="400" cy="200" r="1" />
<circle id="pointA" cx="400" cy="530" r="1" /><g font-size="10" font-family="sans-serif" fill="black" stroke="none" text-anchor="middle">
<text x="400" y="560">NET4</text>
</g>
</svg>